<?xml version="1.0" encoding="UTF-8"?>
<!DOCTYPE svg PUBLIC "-//W3C//DTD SVG 1.1//EN" "http://www.w3.org/Graphics/SVG/1.1/DTD/svg11.dtd">
<svg xmlns="http://www.w3.org/2000/svg" version="1.1" width="660px" height="660px" style="shape-rendering:geometricPrecision; text-rendering:geometricPrecision; image-rendering:optimizeQuality; fill-rule:evenodd; clip-rule:evenodd" xmlns:xlink="http://www.w3.org/1999/xlink">
<g><path style="opacity:1" fill="#3a3c88" d="M -0.5,-0.5 C 209.5,-0.5 419.5,-0.5 629.5,-0.5C 629.245,0.936101 628.912,2.4361 628.5,4C 629.126,4.75044 629.626,5.58377 630,6.5C 631.722,6.96152 633.555,7.12818 635.5,7C 634.833,7.66667 634.167,8.33333 633.5,9C 634.641,9.74117 634.641,10.5745 633.5,11.5C 634.025,12.1924 634.692,12.6924 635.5,13C 634.023,15.1485 632.023,16.4818 629.5,17C 630.766,17.3095 631.933,17.8095 633,18.5C 634.281,17.3533 634.614,17.6866 634,19.5C 632.933,20.1905 631.766,20.6905 630.5,21C 632.167,21.3333 633.833,21.6667 635.5,22C 634.341,23.8267 633.008,25.4933 631.5,27C 633.686,27.6036 633.852,28.7703 632,30.5C 630.745,31.2106 629.579,32.044 628.5,33C 627.892,35.1841 628.559,37.1841 630.5,39C 632.126,38.8047 633.793,38.8047 635.5,39C 634.833,39.6667 634.167,40.3333 633.5,41C 634.641,41.7412 634.641,42.5745 633.5,43.5C 634.025,44.1924 634.692,44.6924 635.5,45C 634.023,47.1485 632.023,48.4818 629.5,49C 630.766,49.3095 631.933,49.8095 633,50.5C 634.281,49.3533 634.614,49.6866 634,51.5C 632.933,52.1905 631.766,52.6905 630.5,53C 632.167,53.3333 633.833,53.6667 635.5,54C 634.341,55.8267 633.008,57.4933 631.5,59C 633.686,59.6036 633.852,60.7703 632,62.5C 630.745,63.2106 629.579,64.044 628.5,65C 627.892,67.1841 628.559,69.1841 630.5,71C 632.126,70.8047 633.793,70.8047 635.5,71C 634.833,71.6667 634.167,72.3333 633.5,73C 634.641,73.7412 634.641,74.5745 633.5,75.5C 634.025,76.1924 634.692,76.6924 635.5,77C 634.023,79.1485 632.023,80.4818 629.5,81C 630.766,81.3095 631.933,81.8095 633,82.5C 634.281,81.3533 634.614,81.6866 634,83.5C 632.933,84.1905 631.766,84.6905 630.5,85C 632.167,85.3333 633.833,85.6667 635.5,86C 634.341,87.8267 633.008,89.4933 631.5,91C 633.686,91.6036 633.852,92.7703 632,94.5C 630.745,95.2106 629.579,96.044 628.5,97C 627.892,99.1841 628.559,101.184 630.5,103C 632.126,102.805 633.793,102.805 635.5,103C 634.833,103.667 634.167,104.333 633.5,105C 634.641,105.741 634.641,106.575 633.5,107.5C 634.025,108.192 634.692,108.692 635.5,109C 634.023,111.148 632.023,112.482 629.5,113C 630.766,113.309 631.933,113.809 633,114.5C 634.281,113.353 634.614,113.687 634,115.5C 632.933,116.191 631.766,116.691 630.5,117C 632.167,117.333 633.833,117.667 635.5,118C 634.341,119.827 633.008,121.493 631.5,123C 633.686,123.604 633.852,124.77 632,126.5C 630.745,127.211 629.579,128.044 628.5,129C 627.892,131.184 628.559,133.184 630.5,135C 632.126,134.805 633.793,134.805 635.5,135C 634.833,135.667 634.167,136.333 633.5,137C 634.641,137.741 634.641,138.575 633.5,139.5C 634.025,140.192 634.692,140.692 635.5,141C 634.023,143.148 632.023,144.482 629.5,145C 630.766,145.309 631.933,145.809 633,146.5C 634.281,145.353 634.614,145.687 634,147.5C 632.933,148.191 631.766,148.691 630.5,149C 632.167,149.333 633.833,149.667 635.5,150C 634.341,151.827 633.008,153.493 631.5,155C 633.686,155.604 633.852,156.77 632,158.5C 630.745,159.211 629.579,160.044 628.5,161C 627.892,163.184 628.559,165.184 630.5,167C 632.126,166.805 633.793,166.805 635.5,167C 634.833,167.667 634.167,168.333 633.5,169C 634.641,169.741 634.641,170.575 633.5,171.5C 634.025,172.192 634.692,172.692 635.5,173C 634.023,175.148 632.023,176.482 629.5,177C 630.766,177.309 631.933,177.809 633,178.5C 634.281,177.353 634.614,177.687 634,179.5C 632.933,180.191 631.766,180.691 630.5,181C 632.167,181.333 633.833,181.667 635.5,182C 634.341,183.827 633.008,185.493 631.5,187C 633.686,187.604 633.852,188.77 632,190.5C 630.745,191.211 629.579,192.044 628.5,193C 627.892,195.184 628.559,197.184 630.5,199C 632.126,198.805 633.793,198.805 635.5,199C 634.833,199.667 634.167,200.333 633.5,201C 634.641,201.741 634.641,202.575 633.5,203.5C 634.025,204.192 634.692,204.692 635.5,205C 634.023,207.148 632.023,208.482 629.5,209C 630.766,209.309 631.933,209.809 633,210.5C 634.281,209.353 634.614,209.687 634,211.5C 632.933,212.191 631.766,212.691 630.5,213C 632.167,213.333 633.833,213.667 635.5,214C 634.341,215.827 633.008,217.493 631.5,219C 633.686,219.604 633.852,220.77 632,222.5C 630.745,223.211 629.579,224.044 628.5,225C 627.892,227.184 628.559,229.184 630.5,231C 632.126,230.805 633.793,230.805 635.5,231C 634.833,231.667 634.167,232.333 633.5,233C 634.641,233.741 634.641,234.575 633.5,235.5C 634.025,236.192 634.692,236.692 635.5,237C 634.023,239.148 632.023,240.482 629.5,241C 630.766,241.309 631.933,241.809 633,242.5C 634.281,241.353 634.614,241.687 634,243.5C 632.933,244.191 631.766,244.691 630.5,245C 632.167,245.333 633.833,245.667 635.5,246C 634.341,247.827 633.008,249.493 631.5,251C 633.686,251.604 633.852,252.77 632,254.5C 630.745,255.211 629.579,256.044 628.5,257C 627.892,259.184 628.559,261.184 630.5,263C 632.126,262.805 633.793,262.805 635.5,263C 634.833,263.667 634.167,264.333 633.5,265C 634.641,265.741 634.641,266.575 633.5,267.5C 634.025,268.192 634.692,268.692 635.5,269C 634.023,271.148 632.023,272.482 629.5,273C 630.766,273.309 631.933,273.809 633,274.5C 634.281,273.353 634.614,273.687 634,275.5C 632.933,276.191 631.766,276.691 630.5,277C 632.167,277.333 633.833,277.667 635.5,278C 634.341,279.827 633.008,281.493 631.5,283C 633.686,283.604 633.852,284.77 632,286.5C 630.745,287.211 629.579,288.044 628.5,289C 627.892,291.184 628.559,293.184 630.5,295C 632.126,294.805 633.793,294.805 635.5,295C 634.833,295.667 634.167,296.333 633.5,297C 634.641,297.741 634.641,298.575 633.5,299.5C 634.025,300.192 634.692,300.692 635.5,301C 634.023,303.148 632.023,304.482 629.5,305C 630.766,305.309 631.933,305.809 633,306.5C 634.281,305.353 634.614,305.687 634,307.5C 632.933,308.191 631.766,308.691 630.5,309C 632.167,309.333 633.833,309.667 635.5,310C 634.341,311.827 633.008,313.493 631.5,315C 633.686,315.604 633.852,316.77 632,318.5C 630.745,319.211 629.579,320.044 628.5,321C 627.892,323.184 628.559,325.184 630.5,327C 632.126,326.805 633.793,326.805 635.5,327C 634.833,327.667 634.167,328.333 633.5,329C 634.641,329.741 634.641,330.575 633.5,331.5C 634.025,332.192 634.692,332.692 635.5,333C 634.023,335.148 632.023,336.482 629.5,337C 630.766,337.309 631.933,337.809 633,338.5C 634.281,337.353 634.614,337.687 634,339.5C 632.933,340.191 631.766,340.691 630.5,341C 632.167,341.333 633.833,341.667 635.5,342C 634.341,343.827 633.008,345.493 631.5,347C 633.686,347.604 633.852,348.77 632,350.5C 630.745,351.211 629.579,352.044 628.5,353C 627.892,355.184 628.559,357.184 630.5,359C 632.126,358.805 633.793,358.805 635.5,359C 634.833,359.667 634.167,360.333 633.5,361C 634.641,361.741 634.641,362.575 633.5,363.5C 634.025,364.192 634.692,364.692 635.5,365C 634.023,367.148 632.023,368.482 629.5,369C 630.766,369.309 631.933,369.809 633,370.5C 634.281,369.353 634.614,369.687 634,371.5C 632.933,372.191 631.766,372.691 630.5,373C 632.167,373.333 633.833,373.667 635.5,374C 634.341,375.827 633.008,377.493 631.5,379C 633.686,379.604 633.852,380.77 632,382.5C 630.745,383.211 629.579,384.044 628.5,385C 627.892,387.184 628.559,389.184 630.5,391C 632.126,390.805 633.793,390.805 635.5,391C 634.833,391.667 634.167,392.333 633.5,393C 634.641,393.741 634.641,394.575 633.5,395.5C 634.025,396.192 634.692,396.692 635.5,397C 634.023,399.148 632.023,400.482 629.5,401C 630.766,401.309 631.933,401.809 633,402.5C 634.281,401.353 634.614,401.687 634,403.5C 632.933,404.191 631.766,404.691 630.5,405C 632.167,405.333 633.833,405.667 635.5,406C 634.341,407.827 633.008,409.493 631.5,411C 633.686,411.604 633.852,412.77 632,414.5C 630.745,415.211 629.579,416.044 628.5,417C 627.892,419.184 628.559,421.184 630.5,423C 632.126,422.805 633.793,422.805 635.5,423C 634.833,423.667 634.167,424.333 633.5,425C 634.641,425.741 634.641,426.575 633.5,427.5C 634.025,428.192 634.692,428.692 635.5,429C 634.023,431.148 632.023,432.482 629.5,433C 630.766,433.309 631.933,433.809 633,434.5C 634.281,433.353 634.614,433.687 634,435.5C 632.933,436.191 631.766,436.691 630.5,437C 632.167,437.333 633.833,437.667 635.5,438C 634.341,439.827 633.008,441.493 631.5,443C 633.686,443.604 633.852,444.77 632,446.5C 630.745,447.211 629.579,448.044 628.5,449C 627.892,451.184 628.559,453.184 630.5,455C 632.126,454.805 633.793,454.805 635.5,455C 634.833,455.667 634.167,456.333 633.5,457C 634.641,457.741 634.641,458.575 633.5,459.5C 634.025,460.192 634.692,460.692 635.5,461C 634.023,463.148 632.023,464.482 629.5,465C 630.766,465.309 631.933,465.809 633,466.5C 634.281,465.353 634.614,465.687 634,467.5C 632.933,468.191 631.766,468.691 630.5,469C 632.167,469.333 633.833,469.667 635.5,470C 634.341,471.827 633.008,473.493 631.5,475C 633.686,475.604 633.852,476.77 632,478.5C 630.745,479.211 629.579,480.044 628.5,481C 627.892,483.184 628.559,485.184 630.5,487C 632.126,486.805 633.793,486.805 635.5,487C 634.833,487.667 634.167,488.333 633.5,489C 634.641,489.741 634.641,490.575 633.5,491.5C 634.025,492.192 634.692,492.692 635.5,493C 634.023,495.148 632.023,496.482 629.5,497C 630.766,497.309 631.933,497.809 633,498.5C 634.281,497.353 634.614,497.687 634,499.5C 632.933,500.191 631.766,500.691 630.5,501C 632.167,501.333 633.833,501.667 635.5,502C 634.341,503.827 633.008,505.493 631.5,507C 633.686,507.604 633.852,508.77 632,510.5C 630.745,511.211 629.579,512.044 628.5,513C 627.892,515.184 628.559,517.184 630.5,519C 632.126,518.805 633.793,518.805 635.5,519C 634.833,519.667 634.167,520.333 633.5,521C 634.641,521.741 634.641,522.575 633.5,523.5C 634.025,524.192 634.692,524.692 635.5,525C 634.023,527.148 632.023,528.482 629.5,529C 630.766,529.309 631.933,529.809 633,530.5C 634.281,529.353 634.614,529.687 634,531.5C 632.933,532.191 631.766,532.691 630.5,533C 632.167,533.333 633.833,533.667 635.5,534C 634.341,535.827 633.008,537.493 631.5,539C 633.686,539.604 633.852,540.77 632,542.5C 630.745,543.211 629.579,544.044 628.5,545C 627.892,547.184 628.559,549.184 630.5,551C 632.126,550.805 633.793,550.805 635.5,551C 634.833,551.667 634.167,552.333 633.5,553C 634.641,553.741 634.641,554.575 633.5,555.5C 634.025,556.192 634.692,556.692 635.5,557C 634.023,559.148 632.023,560.482 629.5,561C 630.766,561.309 631.933,561.809 633,562.5C 634.281,561.353 634.614,561.687 634,563.5C 632.933,564.191 631.766,564.691 630.5,565C 632.167,565.333 633.833,565.667 635.5,566C 634.341,567.827 633.008,569.493 631.5,571C 633.686,571.604 633.852,572.77 632,574.5C 630.745,575.211 629.579,576.044 628.5,577C 627.892,579.184 628.559,581.184 630.5,583C 632.126,582.805 633.793,582.805 635.5,583C 634.833,583.667 634.167,584.333 633.5,585C 634.641,585.741 634.641,586.575 633.5,587.5C 634.025,588.192 634.692,588.692 635.5,589C 634.023,591.148 632.023,592.482 629.5,593C 630.766,593.309 631.933,593.809 633,594.5C 634.281,593.353 634.614,593.687 634,595.5C 632.933,596.191 631.766,596.691 630.5,597C 632.167,597.333 633.833,597.667 635.5,598C 634.341,599.827 633.008,601.493 631.5,603C 633.686,603.604 633.852,604.77 632,606.5C 630.745,607.211 629.579,608.044 628.5,609C 627.892,611.184 628.559,613.184 630.5,615C 632.126,614.805 633.793,614.805 635.5,615C 634.833,615.667 634.167,616.333 633.5,617C 634.641,617.741 634.641,618.575 633.5,619.5C 634.025,620.192 634.692,620.692 635.5,621C 634.023,623.148 632.023,624.482 629.5,625C 630.766,625.309 631.933,625.809 633,626.5C 634.281,625.353 634.614,625.687 634,627.5C 632.933,628.191 631.766,628.691 630.5,629C 632.167,629.333 633.833,629.667 635.5,630C 634.341,631.827 633.008,633.493 631.5,635C 633.686,635.604 633.852,636.77 632,638.5C 630.745,639.211 629.579,640.044 628.5,641C 627.892,643.184 628.559,645.184 630.5,647C 632.126,646.805 633.793,646.805 635.5,647C 634.833,647.667 634.167,648.333 633.5,649C 634.641,649.741 634.641,650.575 633.5,651.5C 634.025,652.192 634.692,652.692 635.5,653C 634.023,655.148 632.023,656.482 629.5,657C 630.5,657.333 631.5,657.667 632.5,658C 631.584,658.278 630.918,658.778 630.5,659.5C 420.167,659.5 209.833,659.5 -0.5,659.5C -0.5,439.5 -0.5,219.5 -0.5,-0.5 Z"/></g>
<g><path style="opacity:1" fill="#35377e" d="M 648.5,-0.5 C 652.167,-0.5 655.833,-0.5 659.5,-0.5C 659.5,219.5 659.5,439.5 659.5,659.5C 655.5,659.5 651.5,659.5 647.5,659.5C 647.67,658.178 647.337,657.011 646.5,656C 649.946,654.037 649.946,652.704 646.5,652C 647.061,650.324 648.061,648.991 649.5,648C 646.707,645.266 647.041,644.266 650.5,645C 649.377,643.956 648.044,643.29 646.5,643C 647.624,642.751 648.624,642.251 649.5,641.5C 649.324,639.328 649.157,636.995 649,634.5C 648.25,633.874 647.416,633.374 646.5,633C 647.109,630.942 648.109,630.109 649.5,630.5C 646.419,626.953 646.419,623.786 649.5,621C 646.283,620.031 646.283,618.364 649.5,616C 646.707,613.266 647.041,612.266 650.5,613C 649.377,611.956 648.044,611.29 646.5,611C 647.624,610.751 648.624,610.251 649.5,609.5C 649.324,607.328 649.157,604.995 649,602.5C 648.25,601.874 647.416,601.374 646.5,601C 647.109,598.942 648.109,598.109 649.5,598.5C 646.419,594.953 646.419,591.786 649.5,589C 646.283,588.031 646.283,586.364 649.5,584C 646.707,581.266 647.041,580.266 650.5,581C 649.377,579.956 648.044,579.29 646.5,579C 647.624,578.751 648.624,578.251 649.5,577.5C 649.324,575.328 649.157,572.995 649,570.5C 648.25,569.874 647.416,569.374 646.5,569C 647.109,566.942 648.109,566.109 649.5,566.5C 646.419,562.953 646.419,559.786 649.5,557C 646.283,556.031 646.283,554.364 649.5,552C 646.707,549.266 647.041,548.266 650.5,549C 649.377,547.956 648.044,547.29 646.5,547C 647.624,546.751 648.624,546.251 649.5,545.5C 649.324,543.328 649.157,540.995 649,538.5C 648.25,537.874 647.416,537.374 646.5,537C 647.109,534.942 648.109,534.109 649.5,534.5C 646.419,530.953 646.419,527.786 649.5,525C 646.283,524.031 646.283,522.364 649.5,520C 646.707,517.266 647.041,516.266 650.5,517C 649.377,515.956 648.044,515.29 646.5,515C 647.624,514.751 648.624,514.251 649.5,513.5C 649.324,511.328 649.157,508.995 649,506.5C 648.25,505.874 647.416,505.374 646.5,505C 647.109,502.942 648.109,502.109 649.5,502.5C 646.419,498.953 646.419,495.786 649.5,493C 646.283,492.031 646.283,490.364 649.5,488C 646.707,485.266 647.041,484.266 650.5,485C 649.377,483.956 648.044,483.29 646.5,483C 647.624,482.751 648.624,482.251 649.5,481.5C 649.324,479.328 649.157,476.995 649,474.5C 648.25,473.874 647.416,473.374 646.5,473C 647.109,470.942 648.109,470.109 649.5,470.5C 646.419,466.953 646.419,463.786 649.5,461C 646.283,460.031 646.283,458.364 649.5,456C 646.707,453.266 647.041,452.266 650.5,453C 649.377,451.956 648.044,451.29 646.5,451C 647.624,450.751 648.624,450.251 649.5,449.5C 649.324,447.328 649.157,444.995 649,442.5C 648.25,441.874 647.416,441.374 646.5,441C 647.109,438.942 648.109,438.109 649.5,438.5C 646.419,434.953 646.419,431.786 649.5,429C 646.283,428.031 646.283,426.364 649.5,424C 646.707,421.266 647.041,420.266 650.5,421C 649.377,419.956 648.044,419.29 646.5,419C 647.624,418.751 648.624,418.251 649.5,417.5C 649.324,415.328 649.157,412.995 649,410.5C 648.25,409.874 647.416,409.374 646.5,409C 647.109,406.942 648.109,406.109 649.5,406.5C 646.419,402.953 646.419,399.786 649.5,397C 646.283,396.031 646.283,394.364 649.5,392C 646.707,389.266 647.041,388.266 650.5,389C 649.377,387.956 648.044,387.29 646.5,387C 647.624,386.751 648.624,386.251 649.5,385.5C 649.324,383.328 649.157,380.995 649,378.5C 648.25,377.874 647.416,377.374 646.5,377C 647.109,374.942 648.109,374.109 649.5,374.5C 646.419,370.953 646.419,367.786 649.5,365C 646.283,364.031 646.283,362.364 649.5,360C 646.707,357.266 647.041,356.266 650.5,357C 649.377,355.956 648.044,355.29 646.5,355C 647.624,354.751 648.624,354.251 649.5,353.5C 649.324,351.328 649.157,348.995 649,346.5C 648.25,345.874 647.416,345.374 646.5,345C 647.109,342.942 648.109,342.109 649.5,342.5C 646.419,338.953 646.419,335.786 649.5,333C 646.283,332.031 646.283,330.364 649.5,328C 646.707,325.266 647.041,324.266 650.5,325C 649.377,323.956 648.044,323.29 646.5,323C 647.624,322.751 648.624,322.251 649.5,321.5C 649.324,319.328 649.157,316.995 649,314.5C 648.25,313.874 647.416,313.374 646.5,313C 647.109,310.942 648.109,310.109 649.5,310.5C 646.419,306.953 646.419,303.786 649.5,301C 646.283,300.031 646.283,298.364 649.5,296C 646.707,293.266 647.041,292.266 650.5,293C 649.377,291.956 648.044,291.29 646.5,291C 647.624,290.751 648.624,290.251 649.5,289.5C 649.324,287.328 649.157,284.995 649,282.5C 648.25,281.874 647.416,281.374 646.5,281C 647.109,278.942 648.109,278.109 649.5,278.5C 646.419,274.953 646.419,271.786 649.5,269C 646.283,268.031 646.283,266.364 649.5,264C 646.707,261.266 647.041,260.266 650.5,261C 649.377,259.956 648.044,259.29 646.5,259C 647.624,258.751 648.624,258.251 649.5,257.5C 649.324,255.328 649.157,252.995 649,250.5C 648.25,249.874 647.416,249.374 646.5,249C 647.109,246.942 648.109,246.109 649.5,246.5C 646.419,242.953 646.419,239.786 649.5,237C 646.283,236.031 646.283,234.364 649.5,232C 646.707,229.266 647.041,228.266 650.5,229C 649.377,227.956 648.044,227.29 646.5,227C 647.624,226.751 648.624,226.251 649.5,225.5C 649.324,223.328 649.157,220.995 649,218.5C 648.25,217.874 647.416,217.374 646.5,217C 647.109,214.942 648.109,214.109 649.5,214.5C 646.419,210.953 646.419,207.786 649.5,205C 646.283,204.031 646.283,202.364 649.5,200C 646.707,197.266 647.041,196.266 650.5,197C 649.377,195.956 648.044,195.29 646.5,195C 647.624,194.751 648.624,194.251 649.5,193.5C 649.324,191.328 649.157,188.995 649,186.5C 648.25,185.874 647.416,185.374 646.5,185C 647.109,182.942 648.109,182.109 649.5,182.5C 646.419,178.953 646.419,175.786 649.5,173C 646.283,172.031 646.283,170.364 649.5,168C 646.707,165.266 647.041,164.266 650.5,165C 649.377,163.956 648.044,163.29 646.5,163C 647.624,162.751 648.624,162.251 649.5,161.5C 649.324,159.328 649.157,156.995 649,154.5C 648.25,153.874 647.416,153.374 646.5,153C 647.109,150.942 648.109,150.109 649.5,150.5C 646.419,146.953 646.419,143.786 649.5,141C 646.283,140.031 646.283,138.364 649.5,136C 646.707,133.266 647.041,132.266 650.5,133C 649.377,131.956 648.044,131.29 646.5,131C 647.624,130.751 648.624,130.251 649.5,129.5C 649.324,127.328 649.157,124.995 649,122.5C 648.25,121.874 647.416,121.374 646.5,121C 647.109,118.942 648.109,118.109 649.5,118.5C 646.419,114.953 646.419,111.786 649.5,109C 646.283,108.031 646.283,106.364 649.5,104C 646.707,101.266 647.041,100.266 650.5,101C 649.377,99.9563 648.044,99.2896 646.5,99C 647.624,98.7508 648.624,98.2508 649.5,97.5C 649.324,95.3284 649.157,92.9951 649,90.5C 648.25,89.8742 647.416,89.3742 646.5,89C 647.109,86.9419 648.109,86.1086 649.5,86.5C 646.419,82.953 646.419,79.7863 649.5,77C 646.283,76.0309 646.283,74.3642 649.5,72C 646.707,69.2656 647.041,68.2656 650.5,69C 649.377,67.9563 648.044,67.2896 646.5,67C 647.624,66.7508 648.624,66.2508 649.5,65.5C 649.324,63.3284 649.157,60.9951 649,58.5C 648.25,57.8742 647.416,57.3742 646.5,57C 647.109,54.9419 648.109,54.1086 649.5,54.5C 646.419,50.953 646.419,47.7863 649.5,45C 646.283,44.0309 646.283,42.3642 649.5,40C 646.707,37.2656 647.041,36.2656 650.5,37C 649.377,35.9563 648.044,35.2896 646.5,35C 647.624,34.7508 648.624,34.2508 649.5,33.5C 649.324,31.3284 649.157,28.9951 649,26.5C 648.25,25.8742 647.416,25.3742 646.5,25C 647.109,22.9419 648.109,22.1086 649.5,22.5C 646.419,18.953 646.419,15.7863 649.5,13C 646.283,12.0309 646.283,10.3642 649.5,8C 646.707,5.26561 647.041,4.26561 650.5,5C 649.377,3.95627 648.044,3.28961 646.5,3C 649.19,2.66546 649.857,1.49879 648.5,-0.5 Z"/></g>
<g><path style="opacity:1" fill="#549999" d="M 231.5,26.5 C 230.637,25.537 229.97,25.537 229.5,26.5C 230.167,27.8333 230.833,29.1667 231.5,30.5C 231.145,31.5223 230.478,32.189 229.5,32.5C 229.477,30.0733 228.977,27.74 228,25.5C 222.996,19.4783 218.496,13.145 214.5,6.5C 214.824,4.43107 215.658,4.09773 217,5.5C 222.342,12.1966 227.175,19.1966 231.5,26.5 Z"/></g>
<g><path style="opacity:1" fill="#435c8e" d="M 274.5,22.5 C 266.813,21.2427 259.147,21.2427 251.5,22.5C 251.611,21.8826 251.944,21.3826 252.5,21C 258.833,20.3333 265.167,20.3333 271.5,21C 272.737,21.2321 273.737,21.7321 274.5,22.5 Z"/></g>
<g><path style="opacity:1" fill="#58aa9c" d="M 274.5,22.5 C 275.5,22.5 276.5,22.5 277.5,22.5C 279.102,24.0739 281.102,24.7406 283.5,24.5C 298.939,30.2371 310.272,40.5704 317.5,55.5C 318.597,59.7766 318.597,64.1099 317.5,68.5C 314.212,71.4493 310.879,74.4493 307.5,77.5C 303.951,78.7232 300.951,80.7232 298.5,83.5C 277.952,97.9338 257.619,112.6 237.5,127.5C 233.766,127.677 230.099,127.344 226.5,126.5C 219.48,120.796 214.146,113.796 210.5,105.5C 210.245,103.033 209.245,101.033 207.5,99.5C 207.326,97.139 206.993,94.8056 206.5,92.5C 205.343,83.5131 205.343,74.5131 206.5,65.5C 208.724,55.4777 213.39,46.8111 220.5,39.5C 219.272,36.7624 217.438,34.4291 215,32.5C 212.188,27.521 213.355,25.521 218.5,26.5C 220.839,29.3386 223.339,32.0052 226,34.5C 227.303,34.0217 228.469,33.355 229.5,32.5C 230.478,32.189 231.145,31.5223 231.5,30.5C 230.833,29.1667 230.167,27.8333 229.5,26.5C 229.97,25.537 230.637,25.537 231.5,26.5C 232.594,27.5817 233.927,28.2483 235.5,28.5C 238.14,26.4189 241.14,25.0856 244.5,24.5C 246.898,24.7406 248.898,24.0739 250.5,22.5C 250.833,22.5 251.167,22.5 251.5,22.5C 259.147,21.2427 266.813,21.2427 274.5,22.5 Z"/></g>
<g><path style="opacity:1" fill="#4c7c94" d="M 250.5,22.5 C 248.898,24.0739 246.898,24.7406 244.5,24.5C 246.102,22.9261 248.102,22.2594 250.5,22.5 Z"/></g>
<g><path style="opacity:1" fill="#466690" d="M 277.5,22.5 C 279.898,22.2594 281.898,22.9261 283.5,24.5C 281.102,24.7406 279.102,24.0739 277.5,22.5 Z"/></g>
<g><path style="opacity:1" fill="#4f8495" d="M 269.5,28.5 C 264.5,28.5 259.5,28.5 254.5,28.5C 257.186,27.0092 260.186,26.3425 263.5,26.5C 265.952,26.5391 267.952,27.2057 269.5,28.5 Z"/></g>
<g><path style="opacity:1" fill="#3a3d89" d="M 252.5,28.5 C 253.167,28.5 253.833,28.5 254.5,28.5C 259.5,28.5 264.5,28.5 269.5,28.5C 283.063,29.8763 294.563,35.543 304,45.5C 307.033,49.5707 309.533,53.9041 311.5,58.5C 311.736,61.6085 311.403,64.6085 310.5,67.5C 307.802,67.8449 305.802,69.1782 304.5,71.5C 281.206,87.4906 258.206,103.991 235.5,121C 233.5,121.667 231.5,121.667 229.5,121C 221.988,113.798 216.655,105.298 213.5,95.5C 212.629,87.2004 212.295,78.8671 212.5,70.5C 213.167,67.5 213.833,64.5 214.5,61.5C 218.142,51.7627 224.142,43.596 232.5,37C 236.373,34.0631 240.706,32.2298 245.5,31.5C 248.272,31.2413 250.605,30.2413 252.5,28.5 Z"/></g>
<g><path style="opacity:1" fill="#456490" d="M 252.5,28.5 C 250.605,30.2413 248.272,31.2413 245.5,31.5C 247.282,29.643 249.615,28.643 252.5,28.5 Z"/></g>
<g><path style="opacity:1" fill="#4c7c94" d="M 256.5,52.5 C 251.673,50.9531 247.007,51.2864 242.5,53.5C 242.47,52.5028 242.97,51.8361 244,51.5C 247.789,50.438 251.623,50.2713 255.5,51C 256.056,51.3826 256.389,51.8826 256.5,52.5 Z"/></g>
<g><path style="opacity:1" fill="#5ab19d" d="M 256.5,52.5 C 259.674,53.0102 262.008,54.6769 263.5,57.5C 264.681,61.7426 265.348,66.076 265.5,70.5C 264.687,73.9895 262.687,76.6562 259.5,78.5C 254.993,80.1126 250.327,80.7793 245.5,80.5C 241.993,79.087 239.327,76.7536 237.5,73.5C 235.856,68.0017 236.19,62.6683 238.5,57.5C 238.957,55.2273 240.29,53.894 242.5,53.5C 247.007,51.2864 251.673,50.9531 256.5,52.5 Z"/></g>
<g><path style="opacity:1" fill="#4b7693" d="M 284.5,52.5 C 281.833,52.5 279.167,52.5 276.5,52.5C 279.243,49.9405 281.91,49.9405 284.5,52.5 Z"/></g>
<g><path style="opacity:1" fill="#508a96" d="M 311.5,58.5 C 312.649,58.7911 313.316,59.6244 313.5,61C 313.456,63.8014 312.456,65.968 310.5,67.5C 311.403,64.6085 311.736,61.6085 311.5,58.5 Z"/></g>
<g><path style="opacity:1" fill="#435a8e" d="M 317.5,55.5 C 318.794,57.0478 319.461,59.0478 319.5,61.5C 319.333,63.5 319.167,65.5 319,67.5C 318.617,68.056 318.117,68.3893 317.5,68.5C 318.597,64.1099 318.597,59.7766 317.5,55.5 Z"/></g>
<g><path style="opacity:1" fill="#4f8696" d="M 238.5,57.5 C 236.19,62.6683 235.856,68.0017 237.5,73.5C 235.967,71.3655 235.3,68.8655 235.5,66C 235.594,63.6246 235.928,61.2913 236.5,59C 236.836,57.9701 237.503,57.4701 238.5,57.5 Z"/></g>
<g><path style="opacity:1" fill="#4e8395" d="M 263.5,57.5 C 264.966,58.347 265.8,59.6803 266,61.5C 266.805,64.6965 266.638,67.6965 265.5,70.5C 265.348,66.076 264.681,61.7426 263.5,57.5 Z"/></g>
<g><path style="opacity:1" fill="#56a09a" d="M 276.5,52.5 C 279.167,52.5 281.833,52.5 284.5,52.5C 290.611,55.0418 292.111,59.3752 289,65.5C 287.67,66.5822 286.17,67.2488 284.5,67.5C 282.167,67.5 279.833,67.5 277.5,67.5C 271.232,62.8473 270.899,57.8473 276.5,52.5 Z"/></g>
<g><path style="opacity:1" fill="#3d448a" d="M 283.5,64.5 C 280.892,64.5997 278.558,63.9331 276.5,62.5C 275.866,54.7858 278.866,52.7858 285.5,56.5C 287.101,59.8862 286.435,62.5528 283.5,64.5 Z"/></g>
<g><path style="opacity:1" fill="#486d91" d="M 276.5,62.5 C 278.558,63.9331 280.892,64.5997 283.5,64.5C 280.598,66.1154 278.265,65.4488 276.5,62.5 Z"/></g>
<g><path style="opacity:1" fill="#486c91" d="M 277.5,67.5 C 279.833,67.5 282.167,67.5 284.5,67.5C 283.866,68.9468 282.699,69.6134 281,69.5C 279.301,69.6134 278.134,68.9468 277.5,67.5 Z"/></g>
<g><path style="opacity:1" fill="#4d7e94" d="M 310.5,67.5 C 308.853,69.3264 306.853,70.6597 304.5,71.5C 305.802,69.1782 307.802,67.8449 310.5,67.5 Z"/></g>
<g><path style="opacity:1" fill="#4c7d94" d="M 214.5,61.5 C 213.833,64.5 213.167,67.5 212.5,70.5C 212.167,70.5 211.833,70.5 211.5,70.5C 211.446,67.0076 212.446,64.0076 214.5,61.5 Z"/></g>
<g><path style="opacity:1" fill="#4e8295" d="M 206.5,65.5 C 205.343,74.5131 205.343,83.5131 206.5,92.5C 205.883,92.3893 205.383,92.056 205,91.5C 204.833,87.8333 204.667,84.1667 204.5,80.5C 204.287,75.2328 204.954,70.2328 206.5,65.5 Z"/></g>
<g><path style="opacity:1" fill="#476991" d="M 307.5,77.5 C 305.049,80.2768 302.049,82.2768 298.5,83.5C 300.951,80.7232 303.951,78.7232 307.5,77.5 Z"/></g>
<g><path style="opacity:1" fill="#519097" d="M 259.5,78.5 C 258.653,79.9663 257.32,80.7996 255.5,81C 251.973,81.8075 248.64,81.6408 245.5,80.5C 250.327,80.7793 254.993,80.1126 259.5,78.5 Z"/></g>
<g><path style="opacity:1" fill="#445d8e" d="M 211.5,70.5 C 211.833,70.5 212.167,70.5 212.5,70.5C 212.295,78.8671 212.629,87.2004 213.5,95.5C 210.679,87.4578 210.012,79.1244 211.5,70.5 Z"/></g>
<g><path style="opacity:1" fill="#497392" d="M 349.5,87.5 C 339.833,86.1667 330.167,86.1667 320.5,87.5C 321.263,86.7321 322.263,86.2321 323.5,86C 331.167,85.3333 338.833,85.3333 346.5,86C 347.737,86.2321 348.737,86.7321 349.5,87.5 Z"/></g>
<g><path style="opacity:1" fill="#59ab9c" d="M 349.5,87.5 C 350.5,87.5 351.5,87.5 352.5,87.5C 352.97,88.6935 353.97,89.3601 355.5,89.5C 358.468,90.1616 361.468,90.495 364.5,90.5C 377.416,95.4158 389.083,102.416 399.5,111.5C 400.419,114.089 402.086,116.089 404.5,117.5C 410.357,123.353 415.024,130.02 418.5,137.5C 418.755,139.967 419.755,141.967 421.5,143.5C 421.5,143.833 421.5,144.167 421.5,144.5C 421.935,147.157 422.935,149.491 424.5,151.5C 425.044,155.673 426.21,159.673 428,163.5C 429.696,181.741 427.529,199.407 421.5,216.5C 419.592,217.486 418.592,219.152 418.5,221.5C 410.602,235.965 399.935,247.965 386.5,257.5C 382.454,259.839 378.454,262.173 374.5,264.5C 374.167,264.5 373.833,264.5 373.5,264.5C 371.033,264.755 369.033,265.755 367.5,267.5C 366.833,267.5 366.167,267.5 365.5,267.5C 362.603,268.129 359.936,269.129 357.5,270.5C 354.873,271.092 352.206,271.425 349.5,271.5C 339.167,272.833 328.833,272.833 318.5,271.5C 318.167,271.5 317.833,271.5 317.5,271.5C 313.047,269.801 308.38,268.467 303.5,267.5C 274.661,256.995 255.327,237.329 245.5,208.5C 245.342,204.159 244.342,200.159 242.5,196.5C 242.5,196.167 242.5,195.833 242.5,195.5C 241.216,184.853 241.216,174.186 242.5,163.5C 243.486,158.851 244.486,154.184 245.5,149.5C 247.25,148.341 248.25,146.674 248.5,144.5C 248.818,141.028 250.151,138.028 252.5,135.5C 255.194,132.124 257.527,128.457 259.5,124.5C 260.08,122.251 261.413,120.585 263.5,119.5C 267.5,116.167 271.167,112.5 274.5,108.5C 278.888,103.696 284.055,99.6961 290,96.5C 296.314,93.5962 302.814,91.0962 309.5,89C 313.114,88.0642 316.78,87.5642 320.5,87.5C 330.167,86.1667 339.833,86.1667 349.5,87.5 Z"/></g>
<g><path style="opacity:1" fill="#508896" d="M 352.5,87.5 C 356.748,87.9528 360.748,88.9528 364.5,90.5C 361.468,90.495 358.468,90.1616 355.5,89.5C 353.97,89.3601 352.97,88.6935 352.5,87.5 Z"/></g>
<g><path style="opacity:1" fill="#4a7292" d="M 353.5,94.5 C 341.147,93.2084 328.814,93.2084 316.5,94.5C 317.334,93.2521 318.667,92.5854 320.5,92.5C 330.517,91.1968 340.517,91.3635 350.5,93C 351.737,93.2321 352.737,93.7321 353.5,94.5 Z"/></g>
<g><path style="opacity:1" fill="#3a3d89" d="M 353.5,94.5 C 354.167,94.5 354.833,94.5 355.5,94.5C 359.114,96.7009 363.114,98.0342 367.5,98.5C 373.847,101.857 380.181,105.191 386.5,108.5C 386.425,112.897 386.925,117.23 388,121.5C 390.068,125.636 391.568,129.969 392.5,134.5C 387.682,138.84 382.515,142.84 377,146.5C 375.961,145.29 374.794,144.29 373.5,143.5C 366.669,136.004 358.336,131.004 348.5,128.5C 348.082,127.778 347.416,127.278 346.5,127C 339.842,126.5 333.175,126.334 326.5,126.5C 324.304,126.59 322.137,126.923 320,127.5C 318.624,127.684 317.791,128.351 317.5,129.5C 317.167,129.5 316.833,129.5 316.5,129.5C 314.033,129.755 312.033,130.755 310.5,132.5C 308.99,133.728 307.49,133.728 306,132.5C 303.92,127.334 301.087,122.667 297.5,118.5C 297.855,117.478 298.522,116.811 299.5,116.5C 303.424,115.414 307.091,113.747 310.5,111.5C 311.386,110.675 311.719,109.675 311.5,108.5C 306.159,109.169 301.159,110.836 296.5,113.5C 294.256,112.41 292.422,110.744 291,108.5C 290.51,107.207 290.343,105.873 290.5,104.5C 292.848,104.408 294.514,103.408 295.5,101.5C 297.967,101.245 299.967,100.245 301.5,98.5C 306.518,97.1596 311.518,95.8263 316.5,94.5C 328.814,93.2084 341.147,93.2084 353.5,94.5 Z"/></g>
<g><path style="opacity:1" fill="#4e8195" d="M 355.5,94.5 C 359.222,95.0166 362.888,95.85 366.5,97C 367.056,97.3826 367.389,97.8826 367.5,98.5C 363.114,98.0342 359.114,96.7009 355.5,94.5 Z"/></g>
<g><path style="opacity:1" fill="#4c7b93" d="M 301.5,98.5 C 299.967,100.245 297.967,101.245 295.5,101.5C 297.033,99.7549 299.033,98.7549 301.5,98.5 Z"/></g>
<g><path style="opacity:1" fill="#476790" d="M 295.5,101.5 C 294.514,103.408 292.848,104.408 290.5,104.5C 291.659,102.75 293.326,101.75 295.5,101.5 Z"/></g>
<g><path style="opacity:1" fill="#57a69b" d="M 343.5,103.5 C 344.451,104.919 344.784,106.585 344.5,108.5C 342.265,108.795 340.265,108.461 338.5,107.5C 338.384,104.09 340.05,102.756 343.5,103.5 Z"/></g>
<g><path style="opacity:1" fill="#4a7793" d="M 207.5,99.5 C 209.245,101.033 210.245,103.033 210.5,105.5C 208.755,103.967 207.755,101.967 207.5,99.5 Z"/></g>
<g><path style="opacity:1" fill="#466690" d="M 343.5,103.5 C 340.05,102.756 338.384,104.09 338.5,107.5C 337.199,106.116 337.199,104.616 338.5,103C 340.387,102.22 342.054,102.387 343.5,103.5 Z"/></g>
<g><path style="opacity:1" fill="#3a3e89" d="M 284.5,107.5 C 285.5,107.5 286.5,107.5 287.5,107.5C 288.107,110.076 289.274,112.409 291,114.5C 291.667,115.833 291.667,117.167 291,118.5C 282.705,124.789 275.872,132.289 270.5,141C 271.009,142.169 271.842,143.002 273,143.5C 277.768,135.734 283.601,128.901 290.5,123C 292.025,121.991 293.692,121.491 295.5,121.5C 298.787,125.99 301.787,130.657 304.5,135.5C 293.274,142.947 286.274,153.281 283.5,166.5C 282.778,166.918 282.278,167.584 282,168.5C 281.179,175.346 281.346,182.013 282.5,188.5C 282.728,194.349 283.728,200.016 285.5,205.5C 280.263,208.369 275.096,211.369 270,214.5C 265.343,210.676 260.843,206.676 256.5,202.5C 251.096,200.77 248.429,197.104 248.5,191.5C 247.21,183.495 247.21,175.495 248.5,167.5C 248.97,160.604 250.47,153.937 253,147.5C 254.898,143.258 257.065,139.258 259.5,135.5C 261.326,133.853 262.66,131.853 263.5,129.5C 269.13,120.87 276.13,113.536 284.5,107.5 Z"/></g>
<g><path style="opacity:1" fill="#539398" d="M 362.5,110.5 C 365.479,111.317 368.479,112.151 371.5,113C 373.155,114.444 373.822,116.278 373.5,118.5C 370.325,116.87 366.991,115.37 363.5,114C 362.663,112.989 362.33,111.822 362.5,110.5 Z"/></g>
<g><path style="opacity:1" fill="#4d7d94" d="M 399.5,111.5 C 401.914,112.911 403.581,114.911 404.5,117.5C 402.086,116.089 400.419,114.089 399.5,111.5 Z"/></g>
<g><path style="opacity:1" fill="#508c97" d="M 274.5,108.5 C 271.167,112.5 267.5,116.167 263.5,119.5C 266.167,114.833 269.833,111.167 274.5,108.5 Z"/></g>
<g><path style="opacity:1" fill="#549799" d="M 290.5,104.5 C 290.343,105.873 290.51,107.207 291,108.5C 292.422,110.744 294.256,112.41 296.5,113.5C 301.159,110.836 306.159,109.169 311.5,108.5C 311.719,109.675 311.386,110.675 310.5,111.5C 307.091,113.747 303.424,115.414 299.5,116.5C 297.212,115.926 295.045,114.926 293,113.5C 293.51,115.38 293.343,117.213 292.5,119C 294.119,119.236 295.119,120.069 295.5,121.5C 293.692,121.491 292.025,121.991 290.5,123C 283.601,128.901 277.768,135.734 273,143.5C 271.842,143.002 271.009,142.169 270.5,141C 275.872,132.289 282.705,124.789 291,118.5C 291.667,117.167 291.667,115.833 291,114.5C 289.274,112.409 288.107,110.076 287.5,107.5C 286.5,107.5 285.5,107.5 284.5,107.5C 286.456,106.522 288.456,105.522 290.5,104.5 Z"/></g>
<g><path style="opacity:1" fill="#3c438a" d="M 392.5,113.5 C 397.524,118.69 402.358,124.023 407,129.5C 410.35,134.867 413.183,140.533 415.5,146.5C 415.631,147.376 415.298,148.043 414.5,148.5C 412.459,147.764 410.459,146.931 408.5,146C 399.267,138.126 393.267,128.293 390.5,116.5C 390.64,114.97 391.307,113.97 392.5,113.5 Z"/></g>
<g><path style="opacity:1" fill="#559b9a" d="M 386.5,108.5 C 388.404,110.322 390.404,111.988 392.5,113.5C 391.307,113.97 390.64,114.97 390.5,116.5C 393.267,128.293 399.267,138.126 408.5,146C 410.459,146.931 412.459,147.764 414.5,148.5C 415.298,148.043 415.631,147.376 415.5,146.5C 416.598,147.601 416.765,148.934 416,150.5C 414.559,149.74 413.059,149.074 411.5,148.5C 410.702,148.957 410.369,149.624 410.5,150.5C 407.851,148.86 405.184,147.193 402.5,145.5C 400.494,142.995 398.328,140.662 396,138.5C 390.936,140.948 386.103,143.782 381.5,147C 379.963,148.11 379.297,149.61 379.5,151.5C 377.475,148.83 375.475,146.163 373.5,143.5C 374.794,144.29 375.961,145.29 377,146.5C 382.515,142.84 387.682,138.84 392.5,134.5C 391.568,129.969 390.068,125.636 388,121.5C 386.925,117.23 386.425,112.897 386.5,108.5 Z"/></g>
<g><path style="opacity:1" fill="#518c97" d="M 326.5,126.5 C 333.175,126.334 339.842,126.5 346.5,127C 347.416,127.278 348.082,127.778 348.5,128.5C 340.167,127.167 331.833,127.167 323.5,128.5C 324.5,127.833 325.5,127.167 326.5,126.5 Z"/></g>
<g><path style="opacity:1" fill="#4c7b94" d="M 226.5,126.5 C 230.099,127.344 233.766,127.677 237.5,127.5C 234.36,128.641 231.027,128.808 227.5,128C 226.944,127.617 226.611,127.117 226.5,126.5 Z"/></g>
<g><path style="opacity:1" fill="#508996" d="M 259.5,124.5 C 257.527,128.457 255.194,132.124 252.5,135.5C 253.687,131.004 256.02,127.337 259.5,124.5 Z"/></g>
<g><path style="opacity:1" fill="#456590" d="M 326.5,126.5 C 325.5,127.167 324.5,127.833 323.5,128.5C 321.379,128.325 319.379,128.659 317.5,129.5C 317.791,128.351 318.624,127.684 320,127.5C 322.137,126.923 324.304,126.59 326.5,126.5 Z"/></g>
<g><path style="opacity:1" fill="#59ab9c" d="M 299.5,116.5 C 298.522,116.811 297.855,117.478 297.5,118.5C 301.087,122.667 303.92,127.334 306,132.5C 307.49,133.728 308.99,133.728 310.5,132.5C 312.967,132.245 314.967,131.245 316.5,129.5C 316.833,129.5 317.167,129.5 317.5,129.5C 319.379,128.659 321.379,128.325 323.5,128.5C 331.833,127.167 340.167,127.167 348.5,128.5C 358.336,131.004 366.669,136.004 373.5,143.5C 375.475,146.163 377.475,148.83 379.5,151.5C 381.769,153.242 383.102,155.576 383.5,158.5C 386.718,166.84 388.051,175.507 387.5,184.5C 386.95,190.898 385.283,196.898 382.5,202.5C 380.473,205.22 378.807,208.22 377.5,211.5C 373.645,215.035 369.812,218.702 366,222.5C 365.333,223.833 365.333,225.167 366,226.5C 368.162,228.82 369.662,231.487 370.5,234.5C 372.284,236.41 373.284,238.744 373.5,241.5C 371.901,241.768 370.568,241.434 369.5,240.5C 369.88,238.302 369.213,236.635 367.5,235.5C 366.42,233.004 365.086,230.67 363.5,228.5C 363.144,227.13 362.31,226.13 361,225.5C 358.133,226.381 355.633,227.714 353.5,229.5C 353.167,229.5 352.833,229.5 352.5,229.5C 342.241,231.689 331.908,232.022 321.5,230.5C 319.883,229.962 318.216,229.629 316.5,229.5C 314.967,227.755 312.967,226.755 310.5,226.5C 301.764,222.799 295.097,216.799 290.5,208.5C 289.675,207.614 288.675,207.281 287.5,207.5C 285.302,207.591 284.969,206.925 286.5,205.5C 287.097,205.265 287.43,204.765 287.5,204C 285.612,198.767 283.945,193.601 282.5,188.5C 282.317,181.132 282.65,173.799 283.5,166.5C 286.274,153.281 293.274,142.947 304.5,135.5C 301.787,130.657 298.787,125.99 295.5,121.5C 295.119,120.069 294.119,119.236 292.5,119C 293.343,117.213 293.51,115.38 293,113.5C 295.045,114.926 297.212,115.926 299.5,116.5 Z"/></g>
<g><path style="opacity:1" fill="#4d7e94" d="M 316.5,129.5 C 314.967,131.245 312.967,132.245 310.5,132.5C 312.033,130.755 314.033,129.755 316.5,129.5 Z"/></g>
<g><path style="opacity:1" fill="#529498" d="M 343.5,133.5 C 341.833,133.5 340.167,133.5 338.5,133.5C 338.827,142.682 338.493,151.682 337.5,160.5C 337.5,151.167 337.5,141.833 337.5,132.5C 339.735,132.205 341.735,132.539 343.5,133.5 Z"/></g>
<g><path style="opacity:1" fill="#476a91" d="M 263.5,129.5 C 262.66,131.853 261.326,133.853 259.5,135.5C 259.845,132.802 261.178,130.802 263.5,129.5 Z"/></g>
<g><path style="opacity:1" fill="#3a3d89" d="M 337.5,160.5 C 338.493,151.682 338.827,142.682 338.5,133.5C 340.167,133.5 341.833,133.5 343.5,133.5C 360.658,137.312 372.491,147.312 379,163.5C 380.895,168.325 381.728,173.325 381.5,178.5C 372.167,178.5 362.833,178.5 353.5,178.5C 353.216,180.415 353.549,182.081 354.5,183.5C 362.984,184.493 371.651,184.826 380.5,184.5C 377.523,207.144 364.857,220.81 342.5,225.5C 341.167,225.5 339.833,225.5 338.5,225.5C 338.826,216.983 338.493,208.65 337.5,200.5C 336.116,199.199 334.616,199.199 333,200.5C 332.5,208.827 332.334,217.16 332.5,225.5C 330.5,225.5 328.5,225.5 326.5,225.5C 326.167,225.5 325.833,225.5 325.5,225.5C 323.485,224.076 321.152,223.41 318.5,223.5C 304.403,218.403 295.07,208.737 290.5,194.5C 289.586,191.272 289.253,187.939 289.5,184.5C 297.019,184.825 304.352,184.492 311.5,183.5C 312.833,182.167 312.833,180.833 311.5,179.5C 304.018,178.508 296.352,178.175 288.5,178.5C 288.5,176.167 288.5,173.833 288.5,171.5C 289.167,169.833 289.833,168.167 290.5,166.5C 292.205,162.087 294.205,157.753 296.5,153.5C 300.217,147.45 305.217,142.783 311.5,139.5C 313.967,139.245 315.967,138.245 317.5,136.5C 322.333,134.709 327.333,133.709 332.5,133.5C 332.334,142.506 332.5,151.506 333,160.5C 334.616,161.801 336.116,161.801 337.5,160.5 Z"/></g>
<g><path style="opacity:1" fill="#4b7893" d="M 317.5,136.5 C 315.967,138.245 313.967,139.245 311.5,139.5C 313.033,137.755 315.033,136.755 317.5,136.5 Z"/></g>
<g><path style="opacity:1" fill="#3a3e89" d="M 410.5,150.5 C 412.642,152.662 415.309,153.662 418.5,153.5C 418.833,155.5 419.167,157.5 419.5,159.5C 419.366,161.292 419.699,162.958 420.5,164.5C 420.74,175.531 420.407,186.531 419.5,197.5C 419.451,201.078 418.785,204.411 417.5,207.5C 415.926,209.102 415.259,211.102 415.5,213.5C 408.256,228.575 397.922,241.075 384.5,251C 383.072,251.579 381.738,251.412 380.5,250.5C 379.588,248.405 378.421,246.405 377,244.5C 374.259,240.058 375.425,237.224 380.5,236C 384.349,232.318 388.016,228.485 391.5,224.5C 390.167,223.167 388.833,223.167 387.5,224.5C 383.178,228.816 378.511,232.816 373.5,236.5C 372.482,235.807 371.482,235.141 370.5,234.5C 369.662,231.487 368.162,228.82 366,226.5C 365.333,225.167 365.333,223.833 366,222.5C 369.812,218.702 373.645,215.035 377.5,211.5C 380.456,209.212 382.123,206.212 382.5,202.5C 385.283,196.898 386.95,190.898 387.5,184.5C 389.095,176.45 388.428,168.45 385.5,160.5C 385.253,159.287 384.586,158.62 383.5,158.5C 383.102,155.576 381.769,153.242 379.5,151.5C 379.297,149.61 379.963,148.11 381.5,147C 386.103,143.782 390.936,140.948 396,138.5C 398.328,140.662 400.494,142.995 402.5,145.5C 405.184,147.193 407.851,148.86 410.5,150.5 Z"/></g>
<g><path style="opacity:1" fill="#4b7993" d="M 418.5,137.5 C 420.245,139.033 421.245,141.033 421.5,143.5C 419.755,141.967 418.755,139.967 418.5,137.5 Z"/></g>
<g><path style="opacity:1" fill="#486c92" d="M 421.5,144.5 C 423.834,146.176 424.834,148.509 424.5,151.5C 422.935,149.491 421.935,147.157 421.5,144.5 Z"/></g>
<g><path style="opacity:1" fill="#4c7a93" d="M 248.5,144.5 C 248.25,146.674 247.25,148.341 245.5,149.5C 245.592,147.152 246.592,145.486 248.5,144.5 Z"/></g>
<g><path style="opacity:1" fill="#57a59b" d="M 264.5,152.5 C 268.701,152.426 270.035,154.259 268.5,158C 263.728,158.81 262.395,156.977 264.5,152.5 Z"/></g>
<g><path style="opacity:1" fill="#466390" d="M 296.5,153.5 C 294.205,157.753 292.205,162.087 290.5,166.5C 290.642,161.222 292.642,156.888 296.5,153.5 Z"/></g>
<g><path style="opacity:1" fill="#56a09a" d="M 406.5,159.5 C 407.182,165.827 407.348,172.161 407,178.5C 406.465,174.962 405.632,171.628 404.5,168.5C 404.494,162.984 403.161,157.817 400.5,153C 401.007,150.659 402.174,150.159 404,151.5C 404.272,154.382 405.106,157.049 406.5,159.5 Z"/></g>
<g><path style="opacity:1" fill="#4b7993" d="M 419.5,159.5 C 421.213,160.635 421.88,162.302 421.5,164.5C 421.167,164.5 420.833,164.5 420.5,164.5C 419.699,162.958 419.366,161.292 419.5,159.5 Z"/></g>
<g><path style="opacity:1" fill="#4f8996" d="M 248.5,167.5 C 247.21,175.495 247.21,183.495 248.5,191.5C 247.732,190.737 247.232,189.737 247,188.5C 246.333,182.167 246.333,175.833 247,169.5C 247.278,168.584 247.778,167.918 248.5,167.5 Z"/></g>
<g><path style="opacity:1" fill="#4f8696" d="M 406.5,159.5 C 408.126,165.928 408.793,172.595 408.5,179.5C 407.178,179.67 406.011,179.337 405,178.5C 404.502,175.183 404.335,171.85 404.5,168.5C 405.632,171.628 406.465,174.962 407,178.5C 407.348,172.161 407.182,165.827 406.5,159.5 Z"/></g>
<g><path style="opacity:1" fill="#42588d" d="M 420.5,164.5 C 420.833,164.5 421.167,164.5 421.5,164.5C 422.75,175.172 422.584,185.839 421,196.5C 420.617,197.056 420.117,197.389 419.5,197.5C 420.407,186.531 420.74,175.531 420.5,164.5 Z"/></g>
<g><path style="opacity:1" fill="#435d8e" d="M 242.5,163.5 C 241.216,174.186 241.216,184.853 242.5,195.5C 241.883,195.389 241.383,195.056 241,194.5C 240.333,185.167 240.333,175.833 241,166.5C 241.232,165.263 241.732,164.263 242.5,163.5 Z"/></g>
<g><path style="opacity:1" fill="#476891" d="M 383.5,158.5 C 384.586,158.62 385.253,159.287 385.5,160.5C 388.428,168.45 389.095,176.45 387.5,184.5C 388.051,175.507 386.718,166.84 383.5,158.5 Z"/></g>
<g><path style="opacity:1" fill="#4f8896" d="M 288.5,171.5 C 288.5,173.833 288.5,176.167 288.5,178.5C 296.352,178.175 304.018,178.508 311.5,179.5C 303.5,179.5 295.5,179.5 287.5,179.5C 287.194,176.615 287.527,173.948 288.5,171.5 Z"/></g>
<g><path style="opacity:1" fill="#4e8695" d="M 381.5,178.5 C 372.682,179.493 363.682,179.827 354.5,179.5C 354.5,180.833 354.5,182.167 354.5,183.5C 353.549,182.081 353.216,180.415 353.5,178.5C 362.833,178.5 372.167,178.5 381.5,178.5 Z"/></g>
<g><path style="opacity:1" fill="#4a7693" d="M 283.5,166.5 C 282.65,173.799 282.317,181.132 282.5,188.5C 281.346,182.013 281.179,175.346 282,168.5C 282.278,167.584 282.778,166.918 283.5,166.5 Z"/></g>
<g><path style="opacity:1" fill="#539698" d="M 311.5,183.5 C 304.352,184.492 297.019,184.825 289.5,184.5C 289.253,187.939 289.586,191.272 290.5,194.5C 288.586,191.316 287.92,187.649 288.5,183.5C 296.167,183.5 303.833,183.5 311.5,183.5 Z"/></g>
<g><path style="opacity:1" fill="#569e9a" d="M 340.5,188.5 C 336.833,189.833 333.167,189.833 329.5,188.5C 328.206,187.71 327.039,186.71 326,185.5C 324.001,175.168 328.167,170.668 338.5,172C 343.898,174.863 345.731,179.363 344,185.5C 342.961,186.71 341.794,187.71 340.5,188.5 Z"/></g>
<g><path style="opacity:1" fill="#3d458a" d="M 331.5,174.5 C 340.171,174.178 342.504,177.845 338.5,185.5C 332.713,188.043 329.379,186.21 328.5,180C 328.863,177.808 329.863,175.974 331.5,174.5 Z"/></g>
<g><path style="opacity:1" fill="#497092" d="M 329.5,188.5 C 333.167,189.833 336.833,189.833 340.5,188.5C 340.389,189.117 340.056,189.617 339.5,190C 336.5,190.667 333.5,190.667 330.5,190C 329.944,189.617 329.611,189.117 329.5,188.5 Z"/></g>
<g><path style="opacity:1" fill="#559d9a" d="M 401.5,199.5 C 406.159,199.015 407.492,200.848 405.5,205C 400.711,205.845 399.377,204.011 401.5,199.5 Z"/></g>
<g><path style="opacity:1" fill="#435a8e" d="M 282.5,188.5 C 283.945,193.601 285.612,198.767 287.5,204C 287.43,204.765 287.097,205.265 286.5,205.5C 286.167,205.5 285.833,205.5 285.5,205.5C 283.728,200.016 282.728,194.349 282.5,188.5 Z"/></g>
<g><path style="opacity:1" fill="#4f8a96" d="M 337.5,200.5 C 336.178,200.33 335.011,200.663 334,201.5C 333.5,209.827 333.334,218.16 333.5,226.5C 330.941,226.802 328.607,226.468 326.5,225.5C 328.5,225.5 330.5,225.5 332.5,225.5C 332.334,217.16 332.5,208.827 333,200.5C 334.616,199.199 336.116,199.199 337.5,200.5 Z"/></g>
<g><path style="opacity:1" fill="#529498" d="M 337.5,200.5 C 338.493,208.65 338.826,216.983 338.5,225.5C 339.833,225.5 341.167,225.5 342.5,225.5C 341.081,226.451 339.415,226.784 337.5,226.5C 337.5,217.833 337.5,209.167 337.5,200.5 Z"/></g>
<g><path style="opacity:1" fill="#56a19a" d="M 256.5,202.5 C 260.843,206.676 265.343,210.676 270,214.5C 275.096,211.369 280.263,208.369 285.5,205.5C 285.833,205.5 286.167,205.5 286.5,205.5C 284.969,206.925 285.302,207.591 287.5,207.5C 286.71,208.794 285.71,209.961 284.5,211C 279.971,212.514 275.805,214.681 272,217.5C 272.545,221.283 273.712,224.95 275.5,228.5C 276.219,230.764 276.552,233.097 276.5,235.5C 275.732,234.737 275.232,233.737 275,232.5C 274.259,235.562 274.425,238.562 275.5,241.5C 273.948,242.798 272.948,242.465 272.5,240.5C 272.251,229.946 268.751,220.279 262,211.5C 259.561,209.371 257.061,207.371 254.5,205.5C 254.5,205.167 254.5,204.833 254.5,204.5C 255.833,204.5 256.5,203.833 256.5,202.5 Z"/></g>
<g><path style="opacity:1" fill="#476991" d="M 242.5,196.5 C 244.342,200.159 245.342,204.159 245.5,208.5C 243.658,204.841 242.658,200.841 242.5,196.5 Z"/></g>
<g><path style="opacity:1" fill="#3d448a" d="M 254.5,205.5 C 257.061,207.371 259.561,209.371 262,211.5C 268.751,220.279 272.251,229.946 272.5,240.5C 271.279,239.972 270.113,239.305 269,238.5C 264.486,231.968 260.152,225.302 256,218.5C 255.51,217.207 255.343,215.873 255.5,214.5C 254.84,212.184 254.173,209.851 253.5,207.5C 253.543,206.584 253.876,205.917 254.5,205.5 Z"/></g>
<g><path style="opacity:1" fill="#486b91" d="M 382.5,202.5 C 382.123,206.212 380.456,209.212 377.5,211.5C 378.807,208.22 380.473,205.22 382.5,202.5 Z"/></g>
<g><path style="opacity:1" fill="#3a3d89" d="M 287.5,207.5 C 288.675,207.281 289.675,207.614 290.5,208.5C 295.097,216.799 301.764,222.799 310.5,226.5C 312.033,228.245 314.033,229.245 316.5,229.5C 318.216,229.629 319.883,229.962 321.5,230.5C 321.611,231.117 321.944,231.617 322.5,232C 330.5,232.667 338.5,232.667 346.5,232C 349.051,231.998 351.051,231.164 352.5,229.5C 352.833,229.5 353.167,229.5 353.5,229.5C 356.77,227.84 360.103,227.506 363.5,228.5C 365.086,230.67 366.42,233.004 367.5,235.5C 368.028,236.847 368.195,238.181 368,239.5C 365.929,240.525 363.762,241.358 361.5,242C 359.561,242.908 358.561,244.408 358.5,246.5C 362.416,246.975 365.749,245.975 368.5,243.5C 369.738,242.588 371.072,242.421 372.5,243C 374.098,246.92 376.098,250.586 378.5,254C 376.681,254.74 375.348,255.907 374.5,257.5C 374.167,257.5 373.833,257.5 373.5,257.5C 371.033,257.755 369.033,258.755 367.5,260.5C 366.391,260.557 365.391,260.89 364.5,261.5C 358.674,262.231 353.008,263.398 347.5,265C 338.506,265.5 329.506,265.666 320.5,265.5C 317.627,265.198 314.961,264.531 312.5,263.5C 310.343,262.593 308.01,261.927 305.5,261.5C 298.962,259.233 292.629,256.4 286.5,253C 284.093,250.817 281.76,248.65 279.5,246.5C 278.728,242.25 278.228,237.917 278,233.5C 277.901,231.347 277.067,229.681 275.5,228.5C 273.712,224.95 272.545,221.283 272,217.5C 275.805,214.681 279.971,212.514 284.5,211C 285.71,209.961 286.71,208.794 287.5,207.5 Z"/></g>
<g><path style="opacity:1" fill="#476b91" d="M 254.5,204.5 C 254.5,204.833 254.5,205.167 254.5,205.5C 253.876,205.917 253.543,206.584 253.5,207.5C 254.173,209.851 254.84,212.184 255.5,214.5C 253.351,211.815 252.017,208.648 251.5,205C 252.176,203.317 253.176,203.15 254.5,204.5 Z"/></g>
<g><path style="opacity:1" fill="#4d7e94" d="M 417.5,207.5 C 417.741,209.898 417.074,211.898 415.5,213.5C 415.259,211.102 415.926,209.102 417.5,207.5 Z"/></g>
<g><path style="opacity:1" fill="#466790" d="M 421.5,216.5 C 421.25,218.674 420.25,220.341 418.5,221.5C 418.592,219.152 419.592,217.486 421.5,216.5 Z"/></g>
<g><path style="opacity:1" fill="#4b7a93" d="M 318.5,223.5 C 321.152,223.41 323.485,224.076 325.5,225.5C 322.848,225.59 320.515,224.924 318.5,223.5 Z"/></g>
<g><path style="opacity:1" fill="#466390" d="M 363.5,228.5 C 360.103,227.506 356.77,227.84 353.5,229.5C 355.633,227.714 358.133,226.381 361,225.5C 362.31,226.13 363.144,227.13 363.5,228.5 Z"/></g>
<g><path style="opacity:1" fill="#4d7d94" d="M 310.5,226.5 C 312.967,226.755 314.967,227.755 316.5,229.5C 314.033,229.245 312.033,228.245 310.5,226.5 Z"/></g>
<g><path style="opacity:1" fill="#4e8095" d="M 352.5,229.5 C 351.051,231.164 349.051,231.998 346.5,232C 338.5,232.667 330.5,232.667 322.5,232C 321.944,231.617 321.611,231.117 321.5,230.5C 331.908,232.022 342.241,231.689 352.5,229.5 Z"/></g>
<g><path style="opacity:1" fill="#4d7d94" d="M 367.5,235.5 C 369.213,236.635 369.88,238.302 369.5,240.5C 366.153,241.336 363.153,242.836 360.5,245C 363.22,245.045 365.886,244.545 368.5,243.5C 365.749,245.975 362.416,246.975 358.5,246.5C 358.561,244.408 359.561,242.908 361.5,242C 363.762,241.358 365.929,240.525 368,239.5C 368.195,238.181 368.028,236.847 367.5,235.5 Z"/></g>
<g><path style="opacity:1" fill="#435d8f" d="M 275.5,228.5 C 277.067,229.681 277.901,231.347 278,233.5C 278.228,237.917 278.728,242.25 279.5,246.5C 277.875,243.109 276.875,239.442 276.5,235.5C 276.552,233.097 276.219,230.764 275.5,228.5 Z"/></g>
<g><path style="opacity:1" fill="#569e9a" d="M 380.5,250.5 C 379.35,249.15 378.683,249.316 378.5,251C 380.324,255.022 378.991,257.188 374.5,257.5C 375.348,255.907 376.681,254.74 378.5,254C 376.098,250.586 374.098,246.92 372.5,243C 371.072,242.421 369.738,242.588 368.5,243.5C 365.886,244.545 363.22,245.045 360.5,245C 363.153,242.836 366.153,241.336 369.5,240.5C 370.568,241.434 371.901,241.768 373.5,241.5C 373.284,238.744 372.284,236.41 370.5,234.5C 371.482,235.141 372.482,235.807 373.5,236.5C 378.511,232.816 383.178,228.816 387.5,224.5C 388.833,223.167 390.167,223.167 391.5,224.5C 388.016,228.485 384.349,232.318 380.5,236C 375.425,237.224 374.259,240.058 377,244.5C 378.421,246.405 379.588,248.405 380.5,250.5 Z"/></g>
<g><path style="opacity:1" fill="#57a59b" d="M 314.5,243.5 C 319.027,243.005 320.361,244.672 318.5,248.5C 314.071,249.083 312.737,247.416 314.5,243.5 Z"/></g>
<g><path style="opacity:1" fill="#497192" d="M 314.5,243.5 C 312.737,247.416 314.071,249.083 318.5,248.5C 314.169,250.601 312.336,249.267 313,244.5C 313.383,243.944 313.883,243.611 314.5,243.5 Z"/></g>
<g><path style="opacity:1" fill="#4b7593" d="M 373.5,257.5 C 371.967,259.245 369.967,260.245 367.5,260.5C 369.033,258.755 371.033,257.755 373.5,257.5 Z"/></g>
<g><path style="opacity:1" fill="#45628f" d="M 386.5,257.5 C 383.462,261.357 379.462,263.69 374.5,264.5C 378.454,262.173 382.454,259.839 386.5,257.5 Z"/></g>
<g><path style="opacity:1" fill="#476a91" d="M 305.5,261.5 C 308.01,261.927 310.343,262.593 312.5,263.5C 310.473,263.662 308.473,263.495 306.5,263C 305.944,262.617 305.611,262.117 305.5,261.5 Z"/></g>
<g><path style="opacity:1" fill="#466390" d="M 364.5,261.5 C 359.977,263.052 355.311,264.552 350.5,266C 340.325,266.825 330.325,266.658 320.5,265.5C 329.506,265.666 338.506,265.5 347.5,265C 353.008,263.398 358.674,262.231 364.5,261.5 Z"/></g>
<g><path style="opacity:1" fill="#486e91" d="M 373.5,264.5 C 371.967,266.245 369.967,267.245 367.5,267.5C 369.033,265.755 371.033,264.755 373.5,264.5 Z"/></g>
<g><path style="opacity:1" fill="#466790" d="M 365.5,267.5 C 363.383,269.655 360.716,270.655 357.5,270.5C 359.936,269.129 362.603,268.129 365.5,267.5 Z"/></g>
<g><path style="opacity:1" fill="#4d7c94" d="M 303.5,267.5 C 308.38,268.467 313.047,269.801 317.5,271.5C 313.644,271.029 309.811,270.362 306,269.5C 304.624,269.316 303.791,268.649 303.5,267.5 Z"/></g>
<g><path style="opacity:1" fill="#486d91" d="M 318.5,271.5 C 328.833,272.833 339.167,272.833 349.5,271.5C 348.737,272.268 347.737,272.768 346.5,273C 337.5,273.667 328.5,273.667 319.5,273C 318.944,272.617 318.611,272.117 318.5,271.5 Z"/></g>
<g><path style="opacity:1" fill="#5ab29d" d="M 100.5,521.5 C 100.5,518.833 100.5,516.167 100.5,513.5C 114.833,513.5 129.167,513.5 143.5,513.5C 143.232,515.099 143.566,516.432 144.5,517.5C 152.502,557.834 176.169,572.001 215.5,560C 236.207,547.569 244.374,529.402 240,505.5C 236.043,496.543 230.21,489.043 222.5,483C 216.33,479.081 209.997,475.414 203.5,472C 184.81,464.489 166.476,456.155 148.5,447C 120.178,430.855 108.678,406.688 114,374.5C 125.087,339.418 148.92,319.585 185.5,315C 211.265,311.285 234.932,316.618 256.5,331C 272.961,343.754 281.628,360.587 282.5,381.5C 267.5,381.5 252.5,381.5 237.5,381.5C 237.662,379.473 237.495,377.473 237,375.5C 226.209,359.335 211.042,352.169 191.5,354C 180.548,355.985 171.382,361.152 164,369.5C 156.235,380.1 155.569,391.1 162,402.5C 169.476,411.298 178.643,417.798 189.5,422C 210.589,430.137 230.922,439.804 250.5,451C 281.39,472.661 291.89,501.828 282,538.5C 267.461,581.859 237.294,603.859 191.5,604.5C 138.583,601.583 108.25,573.916 100.5,521.5 Z"/></g>
<g><path style="opacity:1" fill="#a0b6d6" d="M 497.5,428.5 C 498.498,392.004 498.832,355.337 498.5,318.5C 513.167,318.5 527.833,318.5 542.5,318.5C 542.5,412.5 542.5,506.5 542.5,600.5C 527.5,600.5 512.5,600.5 497.5,600.5C 497.5,556.5 497.5,512.5 497.5,468.5C 447.832,468.333 398.166,468.5 348.5,469C 357.577,475.955 366.744,482.788 376,489.5C 376.5,526.498 376.667,563.498 376.5,600.5C 361.167,600.5 345.833,600.5 330.5,600.5C 330.5,506.167 330.5,411.833 330.5,317.5C 345.833,317.5 361.167,317.5 376.5,317.5C 376.5,354.5 376.5,391.5 376.5,428.5C 416.833,428.5 457.167,428.5 497.5,428.5 Z"/></g>
<g><path style="opacity:1" fill="#8192bf" d="M 542.5,600.5 C 542.5,506.5 542.5,412.5 542.5,318.5C 527.833,318.5 513.167,318.5 498.5,318.5C 498.832,355.337 498.498,392.004 497.5,428.5C 497.5,391.5 497.5,354.5 497.5,317.5C 512.833,317.5 528.167,317.5 543.5,317.5C 543.833,412.001 543.499,506.335 542.5,600.5 Z"/></g>
<g><path style="opacity:1" fill="#373983" d="M 629.5,-0.5 C 635.833,-0.5 642.167,-0.5 648.5,-0.5C 649.857,1.49879 649.19,2.66546 646.5,3C 648.044,3.28961 649.377,3.95627 650.5,5C 647.041,4.26561 646.707,5.26561 649.5,8C 646.283,10.3642 646.283,12.0309 649.5,13C 646.419,15.7863 646.419,18.953 649.5,22.5C 648.109,22.1086 647.109,22.9419 646.5,25C 647.416,25.3742 648.25,25.8742 649,26.5C 649.157,28.9951 649.324,31.3284 649.5,33.5C 648.624,34.2508 647.624,34.7508 646.5,35C 648.044,35.2896 649.377,35.9563 650.5,37C 647.041,36.2656 646.707,37.2656 649.5,40C 646.283,42.3642 646.283,44.0309 649.5,45C 646.419,47.7863 646.419,50.953 649.5,54.5C 648.109,54.1086 647.109,54.9419 646.5,57C 647.416,57.3742 648.25,57.8742 649,58.5C 649.157,60.9951 649.324,63.3284 649.5,65.5C 648.624,66.2508 647.624,66.7508 646.5,67C 648.044,67.2896 649.377,67.9563 650.5,69C 647.041,68.2656 646.707,69.2656 649.5,72C 646.283,74.3642 646.283,76.0309 649.5,77C 646.419,79.7863 646.419,82.953 649.5,86.5C 648.109,86.1086 647.109,86.9419 646.5,89C 647.416,89.3742 648.25,89.8742 649,90.5C 649.157,92.9951 649.324,95.3284 649.5,97.5C 648.624,98.2508 647.624,98.7508 646.5,99C 648.044,99.2896 649.377,99.9563 650.5,101C 647.041,100.266 646.707,101.266 649.5,104C 646.283,106.364 646.283,108.031 649.5,109C 646.419,111.786 646.419,114.953 649.5,118.5C 648.109,118.109 647.109,118.942 646.5,121C 647.416,121.374 648.25,121.874 649,122.5C 649.157,124.995 649.324,127.328 649.5,129.5C 648.624,130.251 647.624,130.751 646.5,131C 648.044,131.29 649.377,131.956 650.5,133C 647.041,132.266 646.707,133.266 649.5,136C 646.283,138.364 646.283,140.031 649.5,141C 646.419,143.786 646.419,146.953 649.5,150.5C 648.109,150.109 647.109,150.942 646.5,153C 647.416,153.374 648.25,153.874 649,154.5C 649.157,156.995 649.324,159.328 649.5,161.5C 648.624,162.251 647.624,162.751 646.5,163C 648.044,163.29 649.377,163.956 650.5,165C 647.041,164.266 646.707,165.266 649.5,168C 646.283,170.364 646.283,172.031 649.5,173C 646.419,175.786 646.419,178.953 649.5,182.5C 648.109,182.109 647.109,182.942 646.5,185C 647.416,185.374 648.25,185.874 649,186.5C 649.157,188.995 649.324,191.328 649.5,193.5C 648.624,194.251 647.624,194.751 646.5,195C 648.044,195.29 649.377,195.956 650.5,197C 647.041,196.266 646.707,197.266 649.5,200C 646.283,202.364 646.283,204.031 649.5,205C 646.419,207.786 646.419,210.953 649.5,214.5C 648.109,214.109 647.109,214.942 646.5,217C 647.416,217.374 648.25,217.874 649,218.5C 649.157,220.995 649.324,223.328 649.5,225.5C 648.624,226.251 647.624,226.751 646.5,227C 648.044,227.29 649.377,227.956 650.5,229C 647.041,228.266 646.707,229.266 649.5,232C 646.283,234.364 646.283,236.031 649.5,237C 646.419,239.786 646.419,242.953 649.5,246.5C 648.109,246.109 647.109,246.942 646.5,249C 647.416,249.374 648.25,249.874 649,250.5C 649.157,252.995 649.324,255.328 649.5,257.5C 648.624,258.251 647.624,258.751 646.5,259C 648.044,259.29 649.377,259.956 650.5,261C 647.041,260.266 646.707,261.266 649.5,264C 646.283,266.364 646.283,268.031 649.5,269C 646.419,271.786 646.419,274.953 649.5,278.5C 648.109,278.109 647.109,278.942 646.5,281C 647.416,281.374 648.25,281.874 649,282.5C 649.157,284.995 649.324,287.328 649.5,289.5C 648.624,290.251 647.624,290.751 646.5,291C 648.044,291.29 649.377,291.956 650.5,293C 647.041,292.266 646.707,293.266 649.5,296C 646.283,298.364 646.283,300.031 649.5,301C 646.419,303.786 646.419,306.953 649.5,310.5C 648.109,310.109 647.109,310.942 646.5,313C 647.416,313.374 648.25,313.874 649,314.5C 649.157,316.995 649.324,319.328 649.5,321.5C 648.624,322.251 647.624,322.751 646.5,323C 648.044,323.29 649.377,323.956 650.5,325C 647.041,324.266 646.707,325.266 649.5,328C 646.283,330.364 646.283,332.031 649.5,333C 646.419,335.786 646.419,338.953 649.5,342.5C 648.109,342.109 647.109,342.942 646.5,345C 647.416,345.374 648.25,345.874 649,346.5C 649.157,348.995 649.324,351.328 649.5,353.5C 648.624,354.251 647.624,354.751 646.5,355C 648.044,355.29 649.377,355.956 650.5,357C 647.041,356.266 646.707,357.266 649.5,360C 646.283,362.364 646.283,364.031 649.5,365C 646.419,367.786 646.419,370.953 649.5,374.5C 648.109,374.109 647.109,374.942 646.5,377C 647.416,377.374 648.25,377.874 649,378.5C 649.157,380.995 649.324,383.328 649.5,385.5C 648.624,386.251 647.624,386.751 646.5,387C 648.044,387.29 649.377,387.956 650.5,389C 647.041,388.266 646.707,389.266 649.5,392C 646.283,394.364 646.283,396.031 649.5,397C 646.419,399.786 646.419,402.953 649.5,406.5C 648.109,406.109 647.109,406.942 646.5,409C 647.416,409.374 648.25,409.874 649,410.5C 649.157,412.995 649.324,415.328 649.5,417.5C 648.624,418.251 647.624,418.751 646.5,419C 648.044,419.29 649.377,419.956 650.5,421C 647.041,420.266 646.707,421.266 649.5,424C 646.283,426.364 646.283,428.031 649.5,429C 646.419,431.786 646.419,434.953 649.5,438.5C 648.109,438.109 647.109,438.942 646.5,441C 647.416,441.374 648.25,441.874 649,442.5C 649.157,444.995 649.324,447.328 649.5,449.5C 648.624,450.251 647.624,450.751 646.5,451C 648.044,451.29 649.377,451.956 650.5,453C 647.041,452.266 646.707,453.266 649.5,456C 646.283,458.364 646.283,460.031 649.5,461C 646.419,463.786 646.419,466.953 649.5,470.5C 648.109,470.109 647.109,470.942 646.5,473C 647.416,473.374 648.25,473.874 649,474.5C 649.157,476.995 649.324,479.328 649.5,481.5C 648.624,482.251 647.624,482.751 646.5,483C 648.044,483.29 649.377,483.956 650.5,485C 647.041,484.266 646.707,485.266 649.5,488C 646.283,490.364 646.283,492.031 649.5,493C 646.419,495.786 646.419,498.953 649.5,502.5C 648.109,502.109 647.109,502.942 646.5,505C 647.416,505.374 648.25,505.874 649,506.5C 649.157,508.995 649.324,511.328 649.5,513.5C 648.624,514.251 647.624,514.751 646.5,515C 648.044,515.29 649.377,515.956 650.5,517C 647.041,516.266 646.707,517.266 649.5,520C 646.283,522.364 646.283,524.031 649.5,525C 646.419,527.786 646.419,530.953 649.5,534.5C 648.109,534.109 647.109,534.942 646.5,537C 647.416,537.374 648.25,537.874 649,538.5C 649.157,540.995 649.324,543.328 649.5,545.5C 648.624,546.251 647.624,546.751 646.5,547C 648.044,547.29 649.377,547.956 650.5,549C 647.041,548.266 646.707,549.266 649.5,552C 646.283,554.364 646.283,556.031 649.5,557C 646.419,559.786 646.419,562.953 649.5,566.5C 648.109,566.109 647.109,566.942 646.5,569C 647.416,569.374 648.25,569.874 649,570.5C 649.157,572.995 649.324,575.328 649.5,577.5C 648.624,578.251 647.624,578.751 646.5,579C 648.044,579.29 649.377,579.956 650.5,581C 647.041,580.266 646.707,581.266 649.5,584C 646.283,586.364 646.283,588.031 649.5,589C 646.419,591.786 646.419,594.953 649.5,598.5C 648.109,598.109 647.109,598.942 646.5,601C 647.416,601.374 648.25,601.874 649,602.5C 649.157,604.995 649.324,607.328 649.5,609.5C 648.624,610.251 647.624,610.751 646.5,611C 648.044,611.29 649.377,611.956 650.5,613C 647.041,612.266 646.707,613.266 649.5,616C 646.283,618.364 646.283,620.031 649.5,621C 646.419,623.786 646.419,626.953 649.5,630.5C 648.109,630.109 647.109,630.942 646.5,633C 647.416,633.374 648.25,633.874 649,634.5C 649.157,636.995 649.324,639.328 649.5,641.5C 648.624,642.251 647.624,642.751 646.5,643C 648.044,643.29 649.377,643.956 650.5,645C 647.041,644.266 646.707,645.266 649.5,648C 648.061,648.991 647.061,650.324 646.5,652C 649.946,652.704 649.946,654.037 646.5,656C 647.337,657.011 647.67,658.178 647.5,659.5C 641.833,659.5 636.167,659.5 630.5,659.5C 630.918,658.778 631.584,658.278 632.5,658C 631.5,657.667 630.5,657.333 629.5,657C 632.023,656.482 634.023,655.148 635.5,653C 634.692,652.692 634.025,652.192 633.5,651.5C 634.641,650.575 634.641,649.741 633.5,649C 634.167,648.333 634.833,647.667 635.5,647C 633.793,646.805 632.126,646.805 630.5,647C 628.559,645.184 627.892,643.184 628.5,641C 629.579,640.044 630.745,639.211 632,638.5C 633.852,636.77 633.686,635.604 631.5,635C 633.008,633.493 634.341,631.827 635.5,630C 633.833,629.667 632.167,629.333 630.5,629C 631.766,628.691 632.933,628.191 634,627.5C 634.614,625.687 634.281,625.353 633,626.5C 631.933,625.809 630.766,625.309 629.5,625C 632.023,624.482 634.023,623.148 635.5,621C 634.692,620.692 634.025,620.192 633.5,619.5C 634.641,618.575 634.641,617.741 633.5,617C 634.167,616.333 634.833,615.667 635.5,615C 633.793,614.805 632.126,614.805 630.5,615C 628.559,613.184 627.892,611.184 628.5,609C 629.579,608.044 630.745,607.211 632,606.5C 633.852,604.77 633.686,603.604 631.5,603C 633.008,601.493 634.341,599.827 635.5,598C 633.833,597.667 632.167,597.333 630.5,597C 631.766,596.691 632.933,596.191 634,595.5C 634.614,593.687 634.281,593.353 633,594.5C 631.933,593.809 630.766,593.309 629.5,593C 632.023,592.482 634.023,591.148 635.5,589C 634.692,588.692 634.025,588.192 633.5,587.5C 634.641,586.575 634.641,585.741 633.5,585C 634.167,584.333 634.833,583.667 635.5,583C 633.793,582.805 632.126,582.805 630.5,583C 628.559,581.184 627.892,579.184 628.5,577C 629.579,576.044 630.745,575.211 632,574.5C 633.852,572.77 633.686,571.604 631.5,571C 633.008,569.493 634.341,567.827 635.5,566C 633.833,565.667 632.167,565.333 630.5,565C 631.766,564.691 632.933,564.191 634,563.5C 634.614,561.687 634.281,561.353 633,562.5C 631.933,561.809 630.766,561.309 629.5,561C 632.023,560.482 634.023,559.148 635.5,557C 634.692,556.692 634.025,556.192 633.5,555.5C 634.641,554.575 634.641,553.741 633.5,553C 634.167,552.333 634.833,551.667 635.5,551C 633.793,550.805 632.126,550.805 630.5,551C 628.559,549.184 627.892,547.184 628.5,545C 629.579,544.044 630.745,543.211 632,542.5C 633.852,540.77 633.686,539.604 631.5,539C 633.008,537.493 634.341,535.827 635.5,534C 633.833,533.667 632.167,533.333 630.5,533C 631.766,532.691 632.933,532.191 634,531.5C 634.614,529.687 634.281,529.353 633,530.5C 631.933,529.809 630.766,529.309 629.5,529C 632.023,528.482 634.023,527.148 635.5,525C 634.692,524.692 634.025,524.192 633.5,523.5C 634.641,522.575 634.641,521.741 633.5,521C 634.167,520.333 634.833,519.667 635.5,519C 633.793,518.805 632.126,518.805 630.5,519C 628.559,517.184 627.892,515.184 628.5,513C 629.579,512.044 630.745,511.211 632,510.5C 633.852,508.77 633.686,507.604 631.5,507C 633.008,505.493 634.341,503.827 635.5,502C 633.833,501.667 632.167,501.333 630.5,501C 631.766,500.691 632.933,500.191 634,499.5C 634.614,497.687 634.281,497.353 633,498.5C 631.933,497.809 630.766,497.309 629.5,497C 632.023,496.482 634.023,495.148 635.5,493C 634.692,492.692 634.025,492.192 633.5,491.5C 634.641,490.575 634.641,489.741 633.5,489C 634.167,488.333 634.833,487.667 635.5,487C 633.793,486.805 632.126,486.805 630.5,487C 628.559,485.184 627.892,483.184 628.5,481C 629.579,480.044 630.745,479.211 632,478.5C 633.852,476.77 633.686,475.604 631.5,475C 633.008,473.493 634.341,471.827 635.5,470C 633.833,469.667 632.167,469.333 630.5,469C 631.766,468.691 632.933,468.191 634,467.5C 634.614,465.687 634.281,465.353 633,466.5C 631.933,465.809 630.766,465.309 629.5,465C 632.023,464.482 634.023,463.148 635.5,461C 634.692,460.692 634.025,460.192 633.5,459.5C 634.641,458.575 634.641,457.741 633.5,457C 634.167,456.333 634.833,455.667 635.5,455C 633.793,454.805 632.126,454.805 630.5,455C 628.559,453.184 627.892,451.184 628.5,449C 629.579,448.044 630.745,447.211 632,446.5C 633.852,444.77 633.686,443.604 631.5,443C 633.008,441.493 634.341,439.827 635.5,438C 633.833,437.667 632.167,437.333 630.5,437C 631.766,436.691 632.933,436.191 634,435.5C 634.614,433.687 634.281,433.353 633,434.5C 631.933,433.809 630.766,433.309 629.5,433C 632.023,432.482 634.023,431.148 635.5,429C 634.692,428.692 634.025,428.192 633.5,427.5C 634.641,426.575 634.641,425.741 633.5,425C 634.167,424.333 634.833,423.667 635.5,423C 633.793,422.805 632.126,422.805 630.5,423C 628.559,421.184 627.892,419.184 628.5,417C 629.579,416.044 630.745,415.211 632,414.5C 633.852,412.77 633.686,411.604 631.5,411C 633.008,409.493 634.341,407.827 635.5,406C 633.833,405.667 632.167,405.333 630.5,405C 631.766,404.691 632.933,404.191 634,403.5C 634.614,401.687 634.281,401.353 633,402.5C 631.933,401.809 630.766,401.309 629.5,401C 632.023,400.482 634.023,399.148 635.5,397C 634.692,396.692 634.025,396.192 633.5,395.5C 634.641,394.575 634.641,393.741 633.5,393C 634.167,392.333 634.833,391.667 635.5,391C 633.793,390.805 632.126,390.805 630.5,391C 628.559,389.184 627.892,387.184 628.5,385C 629.579,384.044 630.745,383.211 632,382.5C 633.852,380.77 633.686,379.604 631.5,379C 633.008,377.493 634.341,375.827 635.5,374C 633.833,373.667 632.167,373.333 630.5,373C 631.766,372.691 632.933,372.191 634,371.5C 634.614,369.687 634.281,369.353 633,370.5C 631.933,369.809 630.766,369.309 629.5,369C 632.023,368.482 634.023,367.148 635.5,365C 634.692,364.692 634.025,364.192 633.5,363.5C 634.641,362.575 634.641,361.741 633.5,361C 634.167,360.333 634.833,359.667 635.5,359C 633.793,358.805 632.126,358.805 630.5,359C 628.559,357.184 627.892,355.184 628.5,353C 629.579,352.044 630.745,351.211 632,350.5C 633.852,348.77 633.686,347.604 631.5,347C 633.008,345.493 634.341,343.827 635.5,342C 633.833,341.667 632.167,341.333 630.5,341C 631.766,340.691 632.933,340.191 634,339.5C 634.614,337.687 634.281,337.353 633,338.5C 631.933,337.809 630.766,337.309 629.5,337C 632.023,336.482 634.023,335.148 635.5,333C 634.692,332.692 634.025,332.192 633.5,331.5C 634.641,330.575 634.641,329.741 633.5,329C 634.167,328.333 634.833,327.667 635.5,327C 633.793,326.805 632.126,326.805 630.5,327C 628.559,325.184 627.892,323.184 628.5,321C 629.579,320.044 630.745,319.211 632,318.5C 633.852,316.77 633.686,315.604 631.5,315C 633.008,313.493 634.341,311.827 635.5,310C 633.833,309.667 632.167,309.333 630.5,309C 631.766,308.691 632.933,308.191 634,307.5C 634.614,305.687 634.281,305.353 633,306.5C 631.933,305.809 630.766,305.309 629.5,305C 632.023,304.482 634.023,303.148 635.5,301C 634.692,300.692 634.025,300.192 633.5,299.5C 634.641,298.575 634.641,297.741 633.5,297C 634.167,296.333 634.833,295.667 635.5,295C 633.793,294.805 632.126,294.805 630.5,295C 628.559,293.184 627.892,291.184 628.5,289C 629.579,288.044 630.745,287.211 632,286.5C 633.852,284.77 633.686,283.604 631.5,283C 633.008,281.493 634.341,279.827 635.5,278C 633.833,277.667 632.167,277.333 630.5,277C 631.766,276.691 632.933,276.191 634,275.5C 634.614,273.687 634.281,273.353 633,274.5C 631.933,273.809 630.766,273.309 629.5,273C 632.023,272.482 634.023,271.148 635.5,269C 634.692,268.692 634.025,268.192 633.5,267.5C 634.641,266.575 634.641,265.741 633.5,265C 634.167,264.333 634.833,263.667 635.5,263C 633.793,262.805 632.126,262.805 630.5,263C 628.559,261.184 627.892,259.184 628.5,257C 629.579,256.044 630.745,255.211 632,254.5C 633.852,252.77 633.686,251.604 631.5,251C 633.008,249.493 634.341,247.827 635.5,246C 633.833,245.667 632.167,245.333 630.5,245C 631.766,244.691 632.933,244.191 634,243.5C 634.614,241.687 634.281,241.353 633,242.5C 631.933,241.809 630.766,241.309 629.5,241C 632.023,240.482 634.023,239.148 635.5,237C 634.692,236.692 634.025,236.192 633.5,235.5C 634.641,234.575 634.641,233.741 633.5,233C 634.167,232.333 634.833,231.667 635.5,231C 633.793,230.805 632.126,230.805 630.5,231C 628.559,229.184 627.892,227.184 628.5,225C 629.579,224.044 630.745,223.211 632,222.5C 633.852,220.77 633.686,219.604 631.5,219C 633.008,217.493 634.341,215.827 635.5,214C 633.833,213.667 632.167,213.333 630.5,213C 631.766,212.691 632.933,212.191 634,211.5C 634.614,209.687 634.281,209.353 633,210.5C 631.933,209.809 630.766,209.309 629.5,209C 632.023,208.482 634.023,207.148 635.5,205C 634.692,204.692 634.025,204.192 633.5,203.5C 634.641,202.575 634.641,201.741 633.5,201C 634.167,200.333 634.833,199.667 635.5,199C 633.793,198.805 632.126,198.805 630.5,199C 628.559,197.184 627.892,195.184 628.5,193C 629.579,192.044 630.745,191.211 632,190.5C 633.852,188.77 633.686,187.604 631.5,187C 633.008,185.493 634.341,183.827 635.5,182C 633.833,181.667 632.167,181.333 630.5,181C 631.766,180.691 632.933,180.191 634,179.5C 634.614,177.687 634.281,177.353 633,178.5C 631.933,177.809 630.766,177.309 629.5,177C 632.023,176.482 634.023,175.148 635.5,173C 634.692,172.692 634.025,172.192 633.5,171.5C 634.641,170.575 634.641,169.741 633.5,169C 634.167,168.333 634.833,167.667 635.5,167C 633.793,166.805 632.126,166.805 630.5,167C 628.559,165.184 627.892,163.184 628.5,161C 629.579,160.044 630.745,159.211 632,158.5C 633.852,156.77 633.686,155.604 631.5,155C 633.008,153.493 634.341,151.827 635.5,150C 633.833,149.667 632.167,149.333 630.5,149C 631.766,148.691 632.933,148.191 634,147.5C 634.614,145.687 634.281,145.353 633,146.5C 631.933,145.809 630.766,145.309 629.5,145C 632.023,144.482 634.023,143.148 635.5,141C 634.692,140.692 634.025,140.192 633.5,139.5C 634.641,138.575 634.641,137.741 633.5,137C 634.167,136.333 634.833,135.667 635.5,135C 633.793,134.805 632.126,134.805 630.5,135C 628.559,133.184 627.892,131.184 628.5,129C 629.579,128.044 630.745,127.211 632,126.5C 633.852,124.77 633.686,123.604 631.5,123C 633.008,121.493 634.341,119.827 635.5,118C 633.833,117.667 632.167,117.333 630.5,117C 631.766,116.691 632.933,116.191 634,115.5C 634.614,113.687 634.281,113.353 633,114.5C 631.933,113.809 630.766,113.309 629.5,113C 632.023,112.482 634.023,111.148 635.5,109C 634.692,108.692 634.025,108.192 633.5,107.5C 634.641,106.575 634.641,105.741 633.5,105C 634.167,104.333 634.833,103.667 635.5,103C 633.793,102.805 632.126,102.805 630.5,103C 628.559,101.184 627.892,99.1841 628.5,97C 629.579,96.044 630.745,95.2106 632,94.5C 633.852,92.7703 633.686,91.6036 631.5,91C 633.008,89.4933 634.341,87.8267 635.5,86C 633.833,85.6667 632.167,85.3333 630.5,85C 631.766,84.6905 632.933,84.1905 634,83.5C 634.614,81.6866 634.281,81.3533 633,82.5C 631.933,81.8095 630.766,81.3095 629.5,81C 632.023,80.4818 634.023,79.1485 635.5,77C 634.692,76.6924 634.025,76.1924 633.5,75.5C 634.641,74.5745 634.641,73.7412 633.5,73C 634.167,72.3333 634.833,71.6667 635.5,71C 633.793,70.8047 632.126,70.8047 630.5,71C 628.559,69.1841 627.892,67.1841 628.5,65C 629.579,64.044 630.745,63.2106 632,62.5C 633.852,60.7703 633.686,59.6036 631.5,59C 633.008,57.4933 634.341,55.8267 635.5,54C 633.833,53.6667 632.167,53.3333 630.5,53C 631.766,52.6905 632.933,52.1905 634,51.5C 634.614,49.6866 634.281,49.3533 633,50.5C 631.933,49.8095 630.766,49.3095 629.5,49C 632.023,48.4818 634.023,47.1485 635.5,45C 634.692,44.6924 634.025,44.1924 633.5,43.5C 634.641,42.5745 634.641,41.7412 633.5,41C 634.167,40.3333 634.833,39.6667 635.5,39C 633.793,38.8047 632.126,38.8047 630.5,39C 628.559,37.1841 627.892,35.1841 628.5,33C 629.579,32.044 630.745,31.2106 632,30.5C 633.852,28.7703 633.686,27.6036 631.5,27C 633.008,25.4933 634.341,23.8267 635.5,22C 633.833,21.6667 632.167,21.3333 630.5,21C 631.766,20.6905 632.933,20.1905 634,19.5C 634.614,17.6866 634.281,17.3533 633,18.5C 631.933,17.8095 630.766,17.3095 629.5,17C 632.023,16.4818 634.023,15.1485 635.5,13C 634.692,12.6924 634.025,12.1924 633.5,11.5C 634.641,10.5745 634.641,9.74117 633.5,9C 634.167,8.33333 634.833,7.66667 635.5,7C 633.555,7.12818 631.722,6.96152 630,6.5C 629.626,5.58377 629.126,4.75044 628.5,4C 628.912,2.4361 629.245,0.936101 629.5,-0.5 Z"/></g>
<g><path style="opacity:1" fill="#529198" d="M 144.5,517.5 C 143.566,516.432 143.232,515.099 143.5,513.5C 129.167,513.5 114.833,513.5 100.5,513.5C 100.5,516.167 100.5,518.833 100.5,521.5C 99.5233,518.713 99.19,515.713 99.5,512.5C 114.5,512.5 129.5,512.5 144.5,512.5C 144.5,514.167 144.5,515.833 144.5,517.5 Z"/></g>
</svg>
